<?xml version="1.0" ?><svg data-name="Layer 1" height="64" id="Layer_1" viewBox="0 0 64 64" width="64" xmlns="http://www.w3.org/2000/svg"><defs><style>.cls-1{fill:#1d1d1b;}</style></defs><title/><g id="satellite"><path class="cls-1" d="M30.37,23.82a20.85,20.85,0,0,0,2.79-3.12c.21-.37-.29-.29-.58-.46s-3.17,2.58-3,3C29.67,23.32,30.12,23.82,30.37,23.82Zm7.71.46c-.29,0-4.42,4.32-4.25,4.83a9.19,9.19,0,0,0,2.08,2.13c.29.08,4.25-4.29,4.46-4.79S38.37,24.28,38.08,24.28Zm1,2.38c-.17.13-2.79,3.38-3,3.25S34.87,29.11,35,29A32.1,32.1,0,0,1,38,25.65C38.27,25.58,39.21,26.53,39,26.65Zm3.08.63c-.33-.17-4.57,4.77-4.54,5a10.29,10.29,0,0,0,2.33,2.08c.33.08,4.13-4.83,4.29-5.17S42.46,27.44,42.12,27.28Zm1,1.92A42.55,42.55,0,0,1,39.87,33c-.17-.08-.75-.92-.92-1s3.13-3.54,3.33-3.5S43.21,29,43.08,29.19Zm-11,2c-.67.25-8.5,8-8.75,8.83s3.83,4.21,4.17,4.46,1.17,0,1.79-.62,7.08-8.67,7.12-9.08S32.59,30.95,32,31.15ZM28.12,43.44c-.29,0-3.79-3.12-3.67-3.5s7.33-7.46,7.75-7.87c.18-.18,3,2.63,3,2.79S28.42,43.4,28.12,43.44Zm1.29-7.75c-.17,0-3.37,4-3.54,4.13,0,0,.08.63.25.71s3.42-4.29,3.58-4.46S29.58,35.74,29.42,35.69Zm.38,2.13c-.17,0-3,3.17-3,3.17.17.17.42.67.54.71s2.67-3.17,2.79-3.33S30,37.82,29.79,37.82ZM61,40.07a44.83,44.83,0,0,0-6.83-6.12,3.65,3.65,0,0,0-5.08.33c-.62.58-6,7.38-6,7.38s-2.54-2.42-2.67-2.5,5.46-5.79,7.33-8.42A3.14,3.14,0,0,0,47,26c-.54-.42-9.5-8-11.67-9.62s-4.75.33-5.21.92-5.71,6.42-5.71,6.42L21.62,21.4s2.75-2.54,4.54-4.58,2.21-3.62,1.79-4.62S19.5,4.94,17.17,4.28,13.5,5.9,11.87,7.65,2.54,17.49,2.54,18.9s6,8.29,7.83,9.67,2.79,1.25,3.79.54,4.92-5,4.92-5l2.75,2.25s-5.92,8-6.42,9.21a2.26,2.26,0,0,0,.38,2.67c.58.58,3.79,3.46,3.79,3.46l-1.17,1.79s-5.75-1.83-8-1.75-3.25,1-3.17,1.58S13.08,49,13.08,49l-2.67,5.29a4,4,0,0,0-1,0c-.37.08-2.29.83-2.42,2.29s.83,3.38,3.54,2.54,1.33-3.46,1.33-3.46.13-.12.67-.58,3.25-3.17,3.25-3.17,7.63,6.21,7.92,6.21,1.58-2.42,1.33-6a11,11,0,0,0-3-6.33l.83-.87s4.67,4.21,6.08,4.46S31,49,33.08,47.24a42.35,42.35,0,0,0,5.38-6.12,16.09,16.09,0,0,1,2.83,3c0,.25-4.21,5.29-5.17,6.79s-.12,1.79.25,2.21a71.11,71.11,0,0,0,7.54,6.17c1.83,1,3.25.54,3.88,0S58.62,46.28,60.33,44,61.42,40.74,61,40.07ZM55.21,37c.21,0,1.79,1.42,1.71,1.63a45.69,45.69,0,0,1-3.58,4.75,13.31,13.31,0,0,1-1.92-1.75A45.74,45.74,0,0,1,55.21,37ZM48,46a31.75,31.75,0,0,1,2.79-3c.17.08,1.79,1.33,1.67,1.54s-2.58,3.38-2.75,3.21Zm.88,2.63c-.08.21-1.83,2.38-2.08,2.29a20.46,20.46,0,0,1-1.87-1.58,21.32,21.32,0,0,1,2.29-2.42C47.33,47,48.92,48.4,48.83,48.61Zm2.83-13.87c.88,0,2.46,1.42,2.46,1.42s-3.46,5-3.67,4.92a27.39,27.39,0,0,1-2.58-2.29C47.77,38.62,50.79,34.78,51.67,34.74ZM47,39.94a9.75,9.75,0,0,1,2.75,2.42,27.25,27.25,0,0,1-2.54,3,23.42,23.42,0,0,1-2.92-2.25A29.21,29.21,0,0,1,47,39.94Zm-3,4.29c.29.08,2.54,1.88,2.38,2.08s-2,2.5-2.29,2.5a11.45,11.45,0,0,1-2.37-2C41.67,46.65,43.67,44.15,44,44.24ZM20,20.49a29.57,29.57,0,0,1-3.33-2.71s2.38-2.75,2.5-2.71,3.25,2.63,3.13,2.83A28.75,28.75,0,0,1,20,20.49ZM13,14.4a15.55,15.55,0,0,1,2.46-2.54,19.34,19.34,0,0,1,2.92,2.54,21.93,21.93,0,0,1-2.21,2.5A30.94,30.94,0,0,1,13,14.4Zm2.33,3.25a20.21,20.21,0,0,1-2.87,3.21c-.12-.17-2.54-2.79-2.54-2.75,0,.27,2.17-3,2.37-2.87S15.46,17.36,15.33,17.65Zm8.29-7.25c.13,0,2.75,1.58,2.33,2.83A13,13,0,0,1,23.21,17c-.12-.08-3.17-2.83-3.17-2.83S23.5,10.4,23.62,10.4Zm-1-.46c-.12.12-3.25,3.71-3.5,3.54s-2.83-2.58-2.87-2.71,3.21-3.25,3.21-3.25A30.22,30.22,0,0,1,22.62,9.94ZM16.21,6c.71.08,2.33.88,2.17,1.08a41.82,41.82,0,0,1-3,3,22,22,0,0,1-1.71-1.71S15.5,5.94,16.21,6ZM13,9.4c.17.08,1.79,1.46,1.63,1.62s-2.17,2.71-2.33,2.58a22.21,22.21,0,0,1-1.71-1.79A22.06,22.06,0,0,1,13,9.4ZM9.67,12.9c.29.08,1.87,1.25,1.71,1.54S9.29,17.32,9,17.19a14.21,14.21,0,0,1-1.75-1.83C7.22,15.16,9.37,12.82,9.67,12.9ZM6,20.69a10.08,10.08,0,0,1-1.42-1.87c-.08-.38,1.79-2.42,2-2.29s1.83,1.38,1.67,1.58S6.17,20.82,6,20.69Zm3.33,4c-.17-.08-2.71-3.25-2.71-3.29a12.81,12.81,0,0,1,2.63-2.58c.17.13,2.67,2.42,2.58,2.71A18.24,18.24,0,0,1,9.29,24.65Zm3.25,3.13a8.75,8.75,0,0,1-2.62-2.58,25,25,0,0,1,2.92-3c.21.08,3,2.71,2.88,3S13.75,28.28,12.54,27.78Zm3.92-3.33c-.17-.08-3.21-3.17-3.21-3.17.17-.17,3-2.79,3-2.79s3.08,2.42,3,2.75A19.78,19.78,0,0,1,16.46,24.44ZM19.71,23c-.25-.1.92-1.17,1.13-1.08a16.05,16.05,0,0,1,2.71,2.58,9,9,0,0,1-1,1.08S19.92,23.11,19.71,23ZM11.12,57.32c-.21.88-2.21,1.63-2.92.54s.38-2,1-2.25A1.62,1.62,0,0,1,11.12,57.32Zm4-5.92a40.41,40.41,0,0,1-3.46,3.54c-.21,0-.58,0-.42-.25s2.33-4.67,2.63-4.83S15.42,51,15.08,51.4ZM23,53.65c0,.63,0,1.38-.25,1.29s-1.17-.62-1.12-.75.25-3.12,0-3.42a3.51,3.51,0,0,0-.83-.54,23.92,23.92,0,0,1-.21,3.08l-.62-.62a12.62,12.62,0,0,0-.12-2.46c-.17-.12-.58-.42-.71-.37s0,2.21-.21,2.13S15,48.36,13.25,46.69s-3.54-3.17-3.33-3.33a19.36,19.36,0,0,1,6.12.92c2.75.83,3.71,1.42,5,3.25A16.64,16.64,0,0,1,23,53.65Zm-.87-9.5c-.25.25-.58.63-.75.58s-.92-.67-1.25-.79.17-1.12.38-1.33S22.37,43.9,22.12,44.15Zm16.83-6a9.24,9.24,0,0,0-.83-1.87c-.17,0-.54.46-.54.46a12.63,12.63,0,0,1,.75,2.13c-.08.17-1,1.17-1,1.17a17.37,17.37,0,0,0-.75-2.37c-.12,0-.46.46-.46.46s.79,2.42.58,2.63-1.08,1.21-1.08,1.21l-.75-2.21s-.75.25-.62.46A14.43,14.43,0,0,1,35,42.53a2,2,0,0,1-.33.5l-1-2.46-.54.58a17.43,17.43,0,0,1,.92,2.5c-.08.17-.75,1-.75,1l-.87-2.37s-.54.17-.5.42.83,2.29.67,2.54-.54.88-.54.88a12.46,12.46,0,0,0-1.12-2.54c-.21,0-.58.33-.54.46s1.13,2.5.92,2.71a5.37,5.37,0,0,1-.79.54,14.43,14.43,0,0,0-.79-2.37c-.17,0-.75,0-.67.17a10.73,10.73,0,0,1,.54,2.54c-.17,0-1-.33-4.17-2.83s-8.29-7.33-8.37-8,1-2.08,1.42-2.58c1.28-1.7,8-9.92,10.5-12.75s4.21-4.12,5.58-3.58S44.46,26,45.29,26.61s2,1.71,1.21,3.25S39,38.11,39,38.11Zm.33,2.54a4.51,4.51,0,0,1,.71-.79c.2-.1,2.71,2.25,2.58,2.5s-.5.92-.62.83A22.2,22.2,0,0,1,39.29,40.65Zm.83,13.21c-.33-.08-2.5-1.5-2.21-2.25a31.84,31.84,0,0,1,2.75-3.67c.17.08,2.75,2,2.54,2.25S40.46,53.94,40.12,53.86Zm2.42,1.83c-.33-.08-1.54-.87-1.46-1.12S44,50.65,44,50.65c.33.08,1.92,1.29,1.75,1.5S42.87,55.78,42.54,55.69Zm4.67,1.75c-.67.75-1.25,1-2.12.54s-1.83-1.21-1.71-1.5,3.25-3.67,3.25-3.67a20.56,20.56,0,0,1,2.58,2.13C49.12,55.11,47.87,56.69,47.21,57.44ZM50,53.82c-.33-.17-2.67-1.87-2.54-2a27.77,27.77,0,0,1,2.17-2.29,17.18,17.18,0,0,1,2.25,2C51.83,51.69,50.37,54,50,53.82Zm2.71-3.37c-.12-.08-2.08-2.08-2.25-2.21,0,0,2.75-3.37,2.88-3.33a12.33,12.33,0,0,1,2,2.13A25.57,25.57,0,0,1,52.75,50.44Zm7-8.92a24.1,24.1,0,0,1-3.5,4.33c-.12,0-2.12-1.92-2.12-1.92.21-.29,3.58-4.62,3.58-4.62S60,40.74,59.79,41.53Z"/></g></svg>